<svg width="350" height="450" viewBox="0 0 350 450" xmlns="http://www.w3.org/2000/svg">
  <defs>
    <linearGradient id="innovationGradient" x1="0%" y1="0%" x2="100%" y2="100%">
      <stop offset="0%" style="stop-color:#4ecdc4;stop-opacity:1" />
      <stop offset="100%" style="stop-color:#00ffff;stop-opacity:1" />
    </linearGradient>
  </defs>
  <rect width="350" height="450" fill="url(#innovationGradient)" rx="15"/>
  <polygon points="175,80 155,160 195,160" fill="white" opacity="0.9"/>
  <circle cx="175" cy="170" r="15" fill="white" opacity="0.9"/>
  <polygon points="155,160 145,180 165,170" fill="white" opacity="0.7"/>
  <polygon points="195,160 205,180 185,170" fill="white" opacity="0.7"/>
  <polygon points="100,100 105,115 120,115 108,125 113,140 100,130 87,140 92,125 80,115 95,115" fill="white" opacity="0.8"/>
  <polygon points="270,140 275,155 290,155 278,165 283,180 270,170 257,180 262,165 250,155 265,155" fill="white" opacity="0.8"/>
  <text x="175" y="350" text-anchor="middle" fill="white" font-size="28" font-weight="bold">Innovation</text>
</svg>