<svg width="150" height="150" viewBox="0 0 150 150" xmlns="http://www.w3.org/2000/svg">
  <!-- Gradient Definition - Moved to the beginning -->
  <defs>
    <linearGradient id="janeGradient" x1="0%" y1="0%" x2="100%" y2="100%">
      <stop offset="0%" style="stop-color:#4ecdc4;stop-opacity:0.8" />
      <stop offset="100%" style="stop-color:#1a0d30;stop-opacity:1" />
    </linearGradient>
  </defs>

  <!-- Background Circle -->
  <circle cx="75" cy="75" r="75" fill="url(#janeGradient)"/>

  <!-- Face -->
  <circle cx="75" cy="65" r="30" fill="#fdbcb4"/>

  <!-- Hair (Long) -->
  <path d="M45 45 Q75 30 105 45 Q110 60 105 80 Q100 95 95 110 L85 100 Q80 85 75 80 Q70 85 65 100 L55 110 Q50 95 45 80 Q40 60 45 45" fill="#deb887"/>

  <!-- Eyes -->
  <circle cx="68" cy="60" r="2" fill="#333"/>
  <circle cx="82" cy="60" r="2" fill="#333"/>

  <!-- Eyelashes -->
  <path d="M66 58 L67 56 M69 57 L70 55 M81 57 L82 55 M83 58 L84 56" stroke="#333" stroke-width="0.5"/>

  <!-- Nose -->
  <ellipse cx="75" cy="68" rx="1" ry="2" fill="#f4a688"/>

  <!-- Mouth -->
  <path d="M70 75 Q75 78 80 75" stroke="#cc6677" stroke-width="1.5" fill="none"/>

  <!-- Shirt -->
  <rect x="55" y="95" width="40" height="55" rx="5" fill="#4ecdc4"/>

  <!-- Necklace -->
  <circle cx="75" cy="92" r="3" fill="#ffd700" stroke="#daa520" stroke-width="1"/>

  <!-- Arms -->
  <ellipse cx="45" cy="115" rx="8" ry="25" fill="#fdbcb4"/>
  <ellipse cx="105" cy="115" rx="8" ry="25" fill="#fdbcb4"/>
</svg>