
<svg width="150" height="150" viewBox="0 0 150 150" xmlns="http://www.w3.org/2000/svg">
  <!-- Gradient Definition - Moved to the beginning -->
  <defs>
    <linearGradient id="johnGradient" x1="0%" y1="0%" x2="100%" y2="100%">
      <stop offset="0%" style="stop-color:#ff6b6b;stop-opacity:0.8" />
      <stop offset="100%" style="stop-color:#1a0d30;stop-opacity:1" />
    </linearGradient>
  </defs>

  <!-- Background Circle -->
  <circle cx="75" cy="75" r="75" fill="url(#johnGradient)"/>

  <!-- Face -->
  <circle cx="75" cy="65" r="30" fill="#fdbcb4"/>

  <!-- Hair -->
  <path d="M45 50 Q75 35 105 50 Q105 35 75 30 Q45 35 45 50" fill="#8b4513"/>

  <!-- Eyes -->
  <circle cx="68" cy="60" r="2" fill="#333"/>
  <circle cx="82" cy="60" r="2" fill="#333"/>

  <!-- Nose -->
  <ellipse cx="75" cy="68" rx="1" ry="2" fill="#f4a688"/>

  <!-- Mouth -->
  <path d="M70 75 Q75 80 80 75" stroke="#333" stroke-width="1" fill="none"/>

  <!-- Shirt -->
  <rect x="55" y="95" width="40" height="55" rx="5" fill="#ff6b6b"/>

  <!-- Tie -->
  <polygon points="75,95 72,95 70,125 80,125 78,95" fill="#333"/>

  <!-- Arms -->
  <ellipse cx="45" cy="115" rx="8" ry="25" fill="#fdbcb4"/>
  <ellipse cx="105" cy="115" rx="8" ry="25" fill="#fdbcb4"/>
</svg>