<svg width="150" height="150" viewBox="0 0 150 150" xmlns="http://www.w3.org/2000/svg">
  <!-- Gradient Definition - Moved to the beginning -->
  <defs>
    <linearGradient id="sarahGradient" x1="0%" y1="0%" x2="100%" y2="100%">
      <stop offset="0%" style="stop-color:#00ffff;stop-opacity:0.8" />
      <stop offset="100%" style="stop-color:#1a0d30;stop-opacity:1" />
    </linearGradient>
  </defs>

  <!-- Background Circle -->
  <circle cx="75" cy="75" r="75" fill="url(#sarahGradient)"/>

  <!-- Face -->
  <circle cx="75" cy="65" r="30" fill="#fdbcb4"/>

  <!-- Hair (Bob cut) -->
  <path d="M48 48 Q75 35 102 48 Q105 55 102 70 Q100 85 95 95 L85 90 Q80 85 75 85 Q70 85 65 90 L55 95 Q50 85 48 70 Q45 55 48 48" fill="#2c1810"/>

  <!-- Eyes -->
  <circle cx="68" cy="60" r="2" fill="#333"/>
  <circle cx="82" cy="60" r="2" fill="#333"/>

  <!-- Eyelashes -->
  <path d="M66 58 L67 56 M69 57 L70 55 M81 57 L82 55 M83 58 L84 56" stroke="#333" stroke-width="0.5"/>

  <!-- Nose -->
  <ellipse cx="75" cy="68" rx="1" ry="2" fill="#f4a688"/>

  <!-- Mouth (with lipstick) -->
  <path d="M70 75 Q75 78 80 75" stroke="#cc6677" stroke-width="2" fill="none"/>

  <!-- Shirt -->
  <rect x="55" y="95" width="40" height="55" rx="5" fill="#00ffff"/>

  <!-- Marketing badge -->
  <circle cx="85" cy="105" r="6" fill="#ffd700"/>
  <text x="85" y="108" text-anchor="middle" fill="#333" font-family="Arial" font-size="8" font-weight="bold">M</text>

  <!-- Arms -->
  <ellipse cx="45" cy="115" rx="8" ry="25" fill="#fdbcb4"/>
  <ellipse cx="105" cy="115" rx="8" ry="25" fill="#fdbcb4"/>

  <!-- Earrings -->
  <circle cx="58" cy="68" r="2" fill="#ffd700"/>
  <circle cx="92" cy="68" r="2" fill="#ffd700"/>
</svg>